<svg width="512" height="512" xmlns="http://www.w3.org/2000/svg">

 <g>
  <title>background</title>
  <rect fill="none" id="canvas_background" height="402" width="582" y="-1" x="-1"/>
 </g>
 <g>
  <title>Layer 1</title>
  <rect fill="#000000" fill-rule="nonzero" y="0" x="0" width="512" ry="64" rx="64" id="rect2987" height="512"/>
  <rect transform="matrix(1.5537946,0,0,1.5537946,-140.87332,-132.64552) " fill="#ffffff" y="200.35699" x="129.957" width="55.194" id="rect11" height="166.021"/>
  <path fill="#ffffff" id="path13-0" d="m104.5128,54.280632c-29.341857,0 -48.512575,19.29036 -48.512575,44.573706c0,24.751948 18.588045,44.573706 47.376751,44.573706l0.554705,0c29.902777,0 48.515683,-19.821758 48.515683,-44.573706c-0.554705,-25.283346 -18.611352,-44.573706 -47.934563,-44.573706z"/>
  <path fill="#ffffff" id="path15" d="m357.279444,172.602091c-45.490445,0 -65.866907,25.017647 -77.276421,42.58951l0,-36.523496l-85.738386,0c1.137378,24.197243 0,257.962533 0,257.962533l85.736832,0l0,-144.064728c0,-7.711483 0.554705,-15.419858 2.827906,-20.931167c6.18721,-15.399658 20.304988,-31.352467 43.992587,-31.352467c31.012186,0 43.436328,23.664292 43.436328,58.327895l0,138.020467l85.741494,0l0,-147.930569c0,-79.237309 -42.305166,-116.097979 -98.72034,-116.097979z"/>
 </g>
</svg>