<svg width="0" height="0" class="hidden">
  <symbol xmlns="http://www.w3.org/2000/svg" viewBox="0 0 56.7 56.7" id="iconfinder_38-instagram_1161953">
    <path d="M28.2 16.7c-7 0-12.8 5.7-12.8 12.8s5.7 12.8 12.8 12.8S41 36.5 41 29.5s-5.8-12.8-12.8-12.8zm0 21c-4.5 0-8.2-3.7-8.2-8.2s3.7-8.2 8.2-8.2 8.2 3.7 8.2 8.2-3.7 8.2-8.2 8.2z"></path>
    <circle cx="41.5" cy="16.4" r="2.9"></circle>
    <path d="M49 8.9c-2.6-2.7-6.3-4.1-10.5-4.1H17.9c-8.7 0-14.5 5.8-14.5 14.5v20.5c0 4.3 1.4 8 4.2 10.7 2.7 2.6 6.3 3.9 10.4 3.9h20.4c4.3 0 7.9-1.4 10.5-3.9 2.7-2.6 4.1-6.3 4.1-10.6V19.3c0-4.2-1.4-7.8-4-10.4zm-.4 31c0 3.1-1.1 5.6-2.9 7.3s-4.3 2.6-7.3 2.6H18c-3 0-5.5-.9-7.3-2.6C8.9 45.4 8 42.9 8 39.8V19.3c0-3 .9-5.5 2.7-7.3 1.7-1.7 4.3-2.6 7.3-2.6h20.6c3 0 5.5.9 7.3 2.7 1.7 1.8 2.7 4.3 2.7 7.2v20.6z"></path>
  </symbol>
  <symbol viewBox="0 0 512 512" xmlns="http://www.w3.org/2000/svg" id="iconfinder_linked_in_104828">
    <path clip-rule="evenodd" d="M293.646 149.394c1.208 30.548-2.114 62.606 1.208 91.031.906 8.47 8.769 17.241 19.359 6.653 28.731-29.635 53.225-86.491 56.254-96.474 1.511-5.442 5.738-7.859 10.883-7.859h76.51c8.778 0 23.598 4.535 12.705 25.707-19.662 37.802-39.614 56.552-61.993 89.821-6.353 9.376-9.081 18.749-1.521 26.306 22.077 22.084 48.09 44.147 62.607 66.233 10.58 16.927.604 29.932-14.518 29.932h-67.137c-8.768 0-16.026-3.632-22.982-9.372-14.518-11.48-25.107-26.301-38.104-39.306-12.101-11.793-20.566-11.501-26.315-.313-4.842 8.475-5.446 18.16-6.352 35.694-.604 8.476-6.353 12.086-14.215 13.296h-32.658c-68.043 0-118.549-51.099-158.767-124.288-18.151-33.267-35.386-63.206-50.809-101.311-1.208-6.957 3.02-12.399 13.309-12.399h61.389c8.769 0 15.423 4.232 17.839 9.373 17.245 39.619 37.5 75 56.255 96.171 4.228 4.837 11.788 6.653 16.631 0 8.466-11.491 6.05-76.211 1.208-84.983-8.467-16.026-22.682-10.886-22.682-13.912.604-9.373 13.007-17.842 58.973-18.145 35.688 0 52.318 3.33 52.923 18.145zM25.701 512h460.89C500.503 512 512 500.52 512 486.597V25.705C512 11.49 500.503 0 486.591 0H25.701C11.487 0 0 11.49 0 25.705v460.891C0 500.519 11.487 512 25.701 512z"
      fill="#040404" fill-rule="evenodd"></path>
  </symbol>
    <symbol viewBox="0 0 512 512" xmlns="http://www.w3.org/2000/svg" id="iconfinder_vk_246533">
    <path clip-rule="evenodd" d="M293.646 149.394c1.208 30.548-2.114 62.606 1.208 91.031.906 8.47 8.769 17.241 19.359 6.653 28.731-29.635 53.225-86.491 56.254-96.474 1.511-5.442 5.738-7.859 10.883-7.859h76.51c8.778 0 23.598 4.535 12.705 25.707-19.662 37.802-39.614 56.552-61.993 89.821-6.353 9.376-9.081 18.749-1.521 26.306 22.077 22.084 48.09 44.147 62.607 66.233 10.58 16.927.604 29.932-14.518 29.932h-67.137c-8.768 0-16.026-3.632-22.982-9.372-14.518-11.48-25.107-26.301-38.104-39.306-12.101-11.793-20.566-11.501-26.315-.313-4.842 8.475-5.446 18.16-6.352 35.694-.604 8.476-6.353 12.086-14.215 13.296h-32.658c-68.043 0-118.549-51.099-158.767-124.288-18.151-33.267-35.386-63.206-50.809-101.311-1.208-6.957 3.02-12.399 13.309-12.399h61.389c8.769 0 15.423 4.232 17.839 9.373 17.245 39.619 37.5 75 56.255 96.171 4.228 4.837 11.788 6.653 16.631 0 8.466-11.491 6.05-76.211 1.208-84.983-8.467-16.026-22.682-10.886-22.682-13.912.604-9.373 13.007-17.842 58.973-18.145 35.688 0 52.318 3.33 52.923 18.145zM25.701 512h460.89C500.503 512 512 500.52 512 486.597V25.705C512 11.49 500.503 0 486.591 0H25.701C11.487 0 0 11.49 0 25.705v460.891C0 500.519 11.487 512 25.701 512z"
      fill="#040404" fill-rule="evenodd"></path>
  </symbol>
          <symbol xmlns="http://www.w3.org/2000/svg" id="linkedin">
    <title>background</title>
    <path fill="none" d="M-1-1h582v402H-1z"></path>
    <title>Layer 1</title>
    <rect width="512" ry="64" rx="64" height="512"></rect>
    <path fill="#fff" d="M61.053 178.668h85.76v257.963h-85.76zm43.46-124.388C75.17 54.28 56 73.572 56 98.855c0 24.752 18.588 44.574 47.377 44.574h.555c29.902 0 48.515-19.822 48.515-44.574-.554-25.283-18.611-44.573-47.934-44.573zM357.28 172.602c-45.491 0-65.867 25.018-77.277 42.59v-36.524h-85.738c1.137 24.197 0 257.963 0 257.963H280V292.566c0-7.712.555-15.42 2.828-20.931 6.188-15.4 20.305-31.353 43.993-31.353 31.012 0 43.436 23.665 43.436 58.328v138.02H456V288.7c0-79.237-42.305-116.098-98.72-116.098z"></path>
  </symbol>
</svg>
